<svg xmlns="http://www.w3.org/2000/svg" version="1.1" xmlns:xlink="http://www.w3.org/1999/xlink" xmlns:svgjs="http://svgjs.com/svgjs" width="512" height="512" x="0" y="0" viewBox="0 0 24 24" style="enable-background:new 0 0 512 512" xml:space="preserve" class=""><g><path d="m10.934 15.136 1.505 3.227c.029.062.063.122.102.179l1.739 2.533a.752.752 0 0 1-.501 1.165l-3.081.491a1.75 1.75 0 0 1-1.862-.989L6.68 17.119a.75.75 0 0 1 .363-.996l2.895-1.35a.749.749 0 0 1 .996.363zm-1.042 1.313-1.535.716 1.839 3.943a.25.25 0 0 0 .266.142l1.91-.305-1.067-1.555a2.68 2.68 0 0 1-.225-.393z" fill="#000000" data-original="#000000" class=""></path><path d="M1.745 14.722a5.01 5.01 0 0 1 2.423-6.655l3.728-1.739a6.69 6.69 0 0 0 1.775-1.207l3.475-3.29a1.283 1.283 0 0 1 2.044.389l4.774 10.239a1.284 1.284 0 0 1-1.015 1.816l-4.754.547a6.73 6.73 0 0 0-2.066.584l-3.728 1.739a5.009 5.009 0 0 1-6.656-2.423zm16.732-1.902-4.519-9.692-3.256 3.082A8.209 8.209 0 0 1 8.53 7.688L4.802 9.426a3.505 3.505 0 0 0-1.697 4.662 3.508 3.508 0 0 0 4.662 1.697l3.728-1.738a8.197 8.197 0 0 1 2.529-.715zM21.404 4.728a.75.75 0 1 1 .634 1.359l-1.447.675a.75.75 0 0 1-.634-1.36zM17.902 3.755a.75.75 0 1 1-1.299-.75l.798-1.383a.751.751 0 0 1 1.299.75zM20.271 10.872a.75.75 0 1 1 .261-1.477l1.572.278a.75.75 0 1 1-.26 1.477z" fill="#000000" data-original="#000000" class=""></path></g></svg>