<svg xmlns="http://www.w3.org/2000/svg" version="1.1" xmlns:xlink="http://www.w3.org/1999/xlink" xmlns:svgjs="http://svgjs.com/svgjs" width="512" height="512" x="0" y="0" viewBox="0 0 24 24" style="enable-background:new 0 0 512 512" xml:space="preserve" class=""><g><path d="M17 1.25c3.194 0 5.75 2.375 5.75 5.25 0 1.336-.546 2.559-1.454 3.49l.197 1.406a.751.751 0 0 1-1.078.775l-1.462-.732A6.228 6.228 0 0 1 17 11.75c-3.194 0-5.75-2.375-5.75-5.25S13.806 1.25 17 1.25zm0 1.5c-2.325 0-4.25 1.657-4.25 3.75s1.925 3.75 4.25 3.75c.613 0 1.197-.115 1.725-.323a.75.75 0 0 1 .61.027l.475.237-.053-.375a.75.75 0 0 1 .247-.666c.764-.675 1.246-1.611 1.246-2.65 0-2.093-1.925-3.75-4.25-3.75z" fill="#000000" data-original="#000000" class=""></path><path d="M9 4.75a.75.75 0 0 1 0 1.5H5c-.69 0-1.25.56-1.25 1.25v10A1.252 1.252 0 0 0 5 18.75h14c.69 0 1.25-.56 1.25-1.25V14a.75.75 0 0 1 1.5 0v3.5A2.75 2.75 0 0 1 19 20.25H5c-.729 0-1.429-.29-1.945-.805A2.755 2.755 0 0 1 2.25 17.5v-10A2.75 2.75 0 0 1 5 4.75zM22 21.25a.75.75 0 0 1 0 1.5H2a.75.75 0 0 1 0-1.5z" fill="#000000" data-original="#000000" class=""></path></g></svg>